<svg width="618" height="708" viewBox="0 0 618 708" fill="none" xmlns="http://www.w3.org/2000/svg">
<rect x="47.3066" y="-234.32" width="1256.55" height="8.35841" transform="rotate(36.8196 47.3066 -234.32)" fill="#25356A" fill-opacity="0.05"/>
<rect x="33.9479" y="-216.478" width="1256.55" height="8.35841" transform="rotate(36.8196 33.9479 -216.478)" fill="#25356A" fill-opacity="0.05"/>
<rect x="20.5907" y="-198.635" width="1256.55" height="8.35841" transform="rotate(36.8196 20.5907 -198.635)" fill="#25356A" fill-opacity="0.05"/>
<rect x="7.23242" y="-180.792" width="1256.55" height="8.35841" transform="rotate(36.8196 7.23242 -180.792)" fill="#25356A" fill-opacity="0.05"/>
<rect x="-6.12537" y="-162.948" width="1256.55" height="8.35841" transform="rotate(36.8196 -6.12537 -162.948)" fill="#25356A" fill-opacity="0.05"/>
<rect x="-19.4827" y="-145.105" width="1256.55" height="8.35841" transform="rotate(36.8196 -19.4827 -145.105)" fill="#25356A" fill-opacity="0.05"/>
<rect x="-32.8409" y="-127.262" width="1256.55" height="8.35841" transform="rotate(36.8196 -32.8409 -127.262)" fill="#25356A" fill-opacity="0.05"/>
<rect x="-46.1981" y="-109.419" width="1256.55" height="8.35841" transform="rotate(36.8196 -46.1981 -109.419)" fill="#25356A" fill-opacity="0.05"/>
<rect x="-59.5559" y="-91.5764" width="1256.55" height="8.35841" transform="rotate(36.8196 -59.5559 -91.5764)" fill="#25356A" fill-opacity="0.05"/>
<rect x="-72.9142" y="-73.7334" width="1256.55" height="8.35841" transform="rotate(36.8196 -72.9142 -73.7334)" fill="#25356A" fill-opacity="0.05"/>
<rect x="-86.272" y="-55.8904" width="1256.55" height="8.35841" transform="rotate(36.8196 -86.272 -55.8904)" fill="#25356A" fill-opacity="0.05"/>
<rect x="-99.6298" y="-38.0474" width="1256.55" height="8.35841" transform="rotate(36.8196 -99.6298 -38.0474)" fill="#25356A" fill-opacity="0.05"/>
<rect x="-112.988" y="-20.2044" width="1256.55" height="8.35841" transform="rotate(36.8196 -112.988 -20.2044)" fill="#25356A" fill-opacity="0.05"/>
<rect x="-126.345" y="-2.36136" width="1256.55" height="8.35841" transform="rotate(36.8196 -126.345 -2.36136)" fill="#25356A" fill-opacity="0.05"/>
<rect x="-139.703" y="15.4817" width="1256.55" height="8.35841" transform="rotate(36.8196 -139.703 15.4817)" fill="#25356A" fill-opacity="0.05"/>
<rect x="-153.061" y="33.3247" width="1256.55" height="8.35841" transform="rotate(36.8196 -153.061 33.3247)" fill="#25356A" fill-opacity="0.05"/>
<rect x="-166.419" y="51.1677" width="1256.55" height="8.35841" transform="rotate(36.8196 -166.419 51.1677)" fill="#25356A" fill-opacity="0.05"/>
<rect x="-179.776" y="69.0107" width="1256.55" height="8.35841" transform="rotate(36.8196 -179.776 69.0107)" fill="#25356A" fill-opacity="0.05"/>
<rect x="-193.134" y="86.8537" width="1256.55" height="8.35841" transform="rotate(36.8196 -193.134 86.8537)" fill="#25356A" fill-opacity="0.05"/>
<rect x="-206.492" y="104.697" width="1256.55" height="8.35841" transform="rotate(36.8196 -206.492 104.697)" fill="#25356A" fill-opacity="0.05"/>
<rect x="-219.85" y="122.54" width="1256.55" height="8.35841" transform="rotate(36.8196 -219.85 122.54)" fill="#25356A" fill-opacity="0.05"/>
<rect x="-234.877" y="142.613" width="1256.55" height="8.35841" transform="rotate(36.8196 -234.877 142.613)" fill="#25356A" fill-opacity="0.05"/>
<rect x="-249.905" y="162.687" width="1256.55" height="8.35841" transform="rotate(36.8196 -249.905 162.687)" fill="#25356A" fill-opacity="0.05"/>
<rect x="-264.932" y="182.76" width="1256.55" height="8.35841" transform="rotate(36.8196 -264.932 182.76)" fill="#25356A" fill-opacity="0.05"/>
<rect x="-279.96" y="202.833" width="1256.55" height="8.35841" transform="rotate(36.8196 -279.96 202.833)" fill="#25356A" fill-opacity="0.05"/>
<rect x="-294.987" y="222.907" width="1256.55" height="8.35841" transform="rotate(36.8196 -294.987 222.907)" fill="#25356A" fill-opacity="0.05"/>
<rect x="-310.015" y="242.98" width="1256.55" height="8.35841" transform="rotate(36.8196 -310.015 242.98)" fill="#25356A" fill-opacity="0.05"/>
</svg>
